<?xml version="1.0" encoding="UTF-8"?>
<svg width="24px" height="24px" viewBox="0 0 24 24" version="1.1" xmlns="http://www.w3.org/2000/svg" xmlns:xlink="http://www.w3.org/1999/xlink">
    <title>0C28305F-7942-44CF-BBDA-A4CDB4E80D97</title>
    <g id="09.-Icon" stroke="none" stroke-width="1" fill="none" fill-rule="evenodd">
        <g id="08.-Icon-and-Badge/01.-Icon/💡Guide/📌-SET_for-dev" transform="translate(-1289.000000, -568.000000)" fill="#060B11">
            <g id="08.-Icon-and-Badge/01.-Icon/01.-App-bar:-Top/Android/kp_core_ic_navi_arrow_back" transform="translate(1289.000000, 568.000000)">
                <path d="M2.06241024,12.259264 L2.04314815,12.1993797 C2.04188791,12.1947982 2.04067004,12.1901991 2.03949499,12.1855829 L2.03774987,12.178274 L2.0347225,12.1656958 C2.02763168,12.134252 2.02251597,12.10206 2.01951257,12.069257 L2.01842595,12.0557733 L2.01659919,12.0192317 C2.01643833,12.0128407 2.01635742,12.0064298 2.01635742,12 L2.01687408,11.9719497 L2.02172591,11.910217 L2.02135742,11.9074655 L2.02320404,11.8982294 C2.02844699,11.8595822 2.03663381,11.8218702 2.04753126,11.7853269 L2.06152125,11.7431244 L2.06550552,11.7323988 C2.0735755,11.7112759 2.08257295,11.6906114 2.09244806,11.6704551 L2.10265335,11.6503 L2.11049353,11.6359294 C2.11656679,11.6250119 2.12290475,11.6142619 2.12949871,11.6036881 L2.14824106,11.5750081 L2.1630854,11.5543151 C2.17257954,11.5414852 2.1824732,11.5289689 2.19274802,11.5167845 L2.2147903,11.4917865 L2.22576082,11.4801378 C2.23530952,11.4702107 2.24512905,11.460546 2.25520753,11.4511556 L10.0133607,3.92610269 C10.3106906,3.6377144 10.785509,3.644963 11.0738973,3.9422929 C11.3360685,4.21259281 11.3539116,4.62957744 11.1316008,4.91982933 L11.0577071,5.0028295 L4.61435742,11.2494655 L21.5,11.25 C21.9142136,11.25 22.25,11.5857864 22.25,12 C22.25,12.3796958 21.9678461,12.693491 21.6017706,12.7431534 L21.5,12.75 L4.61635742,12.7494655 L11.0577071,18.9971705 C11.355037,19.2855588 11.3622856,19.7603772 11.0738973,20.0577071 C10.8117261,20.328007 10.3954805,20.3585703 10.0985778,20.145223 L10.0133607,20.0738973 L2.24418423,12.5383634 L2.22799402,12.5221732 C2.19351281,12.4866229 2.16325798,12.4485352 2.13722003,12.4085322 L2.12565208,12.390076 C2.11638743,12.3748912 2.10764741,12.3593512 2.09945722,12.3434814 L2.08600377,12.3161099 L2.08109291,12.3052747 C2.07911889,12.3008502 2.07718647,12.2964031 2.07529614,12.2919338 L2.06241024,12.259264 Z" id="🎨-icon-color"></path>
            </g>
        </g>
    </g>
</svg>