<?xml version="1.0" encoding="UTF-8"?>
<svg width="24px" height="24px" viewBox="0 0 24 24" version="1.1" xmlns="http://www.w3.org/2000/svg" xmlns:xlink="http://www.w3.org/1999/xlink">
    <title>46F94691-52AD-4053-8770-B30976E33F6F</title>
    <g id="09.-Icon" stroke="none" stroke-width="1" fill="none" fill-rule="evenodd">
        <g id="08.-Icon-and-Badge/01.-Icon/💡Guide/📌-SET_for-dev" transform="translate(-660.000000, -568.000000)" fill="#060B11">
            <g id="08.-Icon-and-Badge/01.-Icon/06.-Common/kp_core_ic_common_arrow_right_th15" transform="translate(660.000000, 568.000000)">
                <path d="M7.19530393,8.64795949 L7.27942236,8.72057764 L12.2490923,13.6899077 L17.2187622,8.72057764 C17.5116554,8.42768442 17.9865291,8.42768442 18.2794224,8.72057764 C18.5456889,8.9868442 18.569895,9.40350789 18.3520405,9.69711938 L18.2794224,9.78123781 L12.7794224,15.2812378 C12.6729157,15.3877444 12.5423456,15.4555214 12.4052126,15.4845686 L12.3014058,15.4990923 L12.1967787,15.4990923 C12.0574582,15.4894099 11.9203252,15.4409978 11.8028806,15.353856 L11.7187622,15.2812378 L6.21876219,9.78123781 C5.92586897,9.48834459 5.92586897,9.01347086 6.21876219,8.72057764 C6.45544358,8.48389625 6.81095726,8.43847255 7.09325104,8.58430654 L7.19530393,8.64795949 Z" id="🎨-icon-color" transform="translate(12.249092, 12.000000) rotate(-90.000000) translate(-12.249092, -12.000000) "></path>
            </g>
        </g>
    </g>
</svg>