<?xml version="1.0" encoding="UTF-8"?>
<svg width="36px" height="36px" viewBox="0 0 36 36" version="1.1" xmlns="http://www.w3.org/2000/svg" xmlns:xlink="http://www.w3.org/1999/xlink">
    <title>8A81D79D-91D5-4D3E-9A1D-994437E6DFBA</title>
    <g id="09.-Icon" stroke="none" stroke-width="1" fill="none" fill-rule="evenodd">
        <g id="08.-Icon-and-Badge/01.-Icon/💡Guide/📌-SET_for-dev" transform="translate(-652.000000, -760.000000)" fill="#FF3C3C">
            <g id="08.-Icon-and-Badge/01.-Icon/03.-State/kp_core_ic_common_error_network" transform="translate(652.000000, 760.000000)">
                <path d="M17.8900004,24.2840097 C19.1329004,24.2840097 20.1400004,25.2911097 20.1400004,26.5340097 C20.1400004,27.7769097 19.1329004,28.7840097 17.8900004,28.7840097 C16.6475504,28.7840097 15.6400004,27.7769097 15.6400004,26.5340097 C15.6400004,25.2911097 16.6475504,24.2840097 17.8900004,24.2840097 Z M9.02648582,6.32950487 L28.1183689,25.421388 C28.5577087,25.8607278 28.5577087,26.5730384 28.1183689,27.0123782 C27.6790291,27.451718 26.9667185,27.451718 26.5273787,27.0123782 L19.8939376,20.3774452 C17.2919747,19.7481797 14.4422775,20.4719182 12.4106993,22.5486426 C11.9704204,22.9987054 11.2486559,23.0066369 10.7985931,22.566358 C10.3485303,22.1260792 10.3405989,21.4043147 10.7808777,20.9542519 C12.6251085,19.0690381 14.9983434,18.0502959 17.4143626,17.8980187 L15.1520206,15.6365978 C12.9649902,16.1660403 10.8896657,17.303374 9.18256243,19.0485991 C8.74230761,19.4986854 8.02054354,19.5066554 7.57045725,19.0664005 C7.12037097,18.6261457 7.112401,17.9043817 7.55265582,17.4542954 C9.22945369,15.7400524 11.2086304,14.5218045 13.3152069,13.7995517 L11.3380025,11.8230847 C9.38271571,12.67546 7.55077742,13.9173127 5.95491122,15.5486426 C5.51463239,15.9987054 4.7928679,16.0066369 4.34280509,15.566358 C3.89274229,15.1260792 3.88481082,14.4043147 4.32508964,13.9542519 C5.9126168,12.3314464 7.70718688,11.048579 9.62205899,10.1056499 L7.43549556,7.92049513 C6.99615573,7.4811553 6.99615573,6.7688447 7.43549556,6.32950487 C7.87483539,5.89016504 8.58714599,5.89016504 9.02648582,6.32950487 Z M18.7233882,13.0261948 C22.2970735,13.1904978 25.8236277,14.6665313 28.5504972,17.4542954 C28.990752,17.9043817 28.9827821,18.6261457 28.5326958,19.0664005 C28.0826095,19.5066554 27.3608454,19.4986854 26.9205906,19.0485991 C25.3496003,17.4425265 23.4667667,16.3512715 21.4720091,15.7748342 L18.7233882,13.0261948 Z M31.7792047,13.9542519 C32.2194835,14.4043147 32.211552,15.1260792 31.7614892,15.566358 C31.3114264,16.0066369 30.5896619,15.9987054 30.1493831,15.5486426 C26.3406346,11.6552552 21.1872144,9.98033879 16.2215233,10.5238932 L14.2275429,8.53054722 C20.3793268,7.27377235 27.0125523,9.08167391 31.7792047,13.9542519 Z" id="🎨-icon-color"></path>
            </g>
        </g>
    </g>
</svg>