<?xml version="1.0" encoding="UTF-8"?>
<svg width="36px" height="36px" viewBox="0 0 36 36" version="1.1" xmlns="http://www.w3.org/2000/svg" xmlns:xlink="http://www.w3.org/1999/xlink">
    <title>4E864DF5-8A5A-4558-9212-BEE0843D5121</title>
    <g id="09.-Icon" stroke="none" stroke-width="1" fill="none" fill-rule="evenodd">
        <g id="08.-Icon-and-Badge/01.-Icon/💡Guide/📌-SET_for-dev" transform="translate(-742.000000, -760.000000)" fill="#008DFF">
            <g id="08.-Icon-and-Badge/01.-Icon/03.-State/kp_core_ic_common_error_app_update" transform="translate(742.000000, 760.000000)">
                <path d="M18,3 C26.2842712,3 33,9.71572875 33,18 C33,26.2842712 26.2842712,33 18,33 C9.71572875,33 3,26.2842712 3,18 C3,9.71572875 9.71572875,3 18,3 Z M18,5 C10.8202983,5 5,10.8202983 5,18 C5,25.1797017 10.8202983,31 18,31 C25.1797017,31 31,25.1797017 31,18 C31,10.8202983 25.1797017,5 18,5 Z M17.9999974,10 C18.5128358,10 18.9355072,10.3860402 18.9932723,10.8833789 L18.9999974,11 L18.9999974,22.591 L22.9556932,18.6366932 L23.0499006,18.5535046 C23.4421918,18.2484797 24.0094228,18.2762093 24.3699068,18.6366932 C24.7303907,18.9971772 24.7581203,19.5644082 24.4530954,19.9566994 L24.3699068,20.0509068 L18.7071068,25.7137068 L18.5903796,25.8139012 L18.5903796,25.8139012 L18.4990277,25.8734772 L18.4990277,25.8734772 L18.4135366,25.9173768 L18.4135366,25.9173768 L18.3374366,25.9481749 L18.3374366,25.9481749 L18.2711048,25.9693341 L18.2711048,25.9693341 L18.1581639,25.9940816 L18.1581639,25.9940816 L18.0282857,26.0062024 L18.0282857,26.0062024 L17.8986797,26.001485 L17.8986797,26.001485 L17.8081359,25.9881306 L17.8081359,25.9881306 L17.72171,25.9673158 L17.72171,25.9673158 L17.6104387,25.9278952 L17.6104387,25.9278952 L17.5275222,25.8882289 L17.5275222,25.8882289 L17.4486259,25.8410938 L17.4486259,25.8410938 L17.3948915,25.802892 L17.3427423,25.7603179 L17.3427423,25.7603179 L11.3136242,20.0710471 C10.9119768,19.6919722 10.8936781,19.0590717 11.2727529,18.6574242 C11.6226682,18.2866727 12.1888609,18.2425616 12.5898036,18.5361217 L12.6863758,18.6165529 L16.9999974,22.688 L16.9999974,11 C16.9999974,10.4477153 17.4477153,10 17.9999974,10 Z" id="🎨-icon-color"></path>
            </g>
        </g>
    </g>
</svg>