<?xml version="1.0" encoding="UTF-8"?>
<svg width="24px" height="24px" viewBox="0 0 24 24" version="1.1" xmlns="http://www.w3.org/2000/svg" xmlns:xlink="http://www.w3.org/1999/xlink">
    <title>0AD7EA14-3952-41D3-9ED0-E22D94F6867B</title>
    <g id="09.-Icon" stroke="none" stroke-width="1" fill="none" fill-rule="evenodd">
        <g id="08.-Icon-and-Badge/01.-Icon/💡Guide/📌-SET_for-dev" transform="translate(-300.000000, -568.000000)" fill="#060B11">
            <g id="08.-Icon-and-Badge/01.-Icon/01.-App-bar:-Top/Android/kp_core_ic_navi_chevron_down" transform="translate(300.000000, 568.000000)">
                <path d="M6.94621165,8.64705176 L7.03033009,8.71966991 L12,13.689 L16.9696699,8.71966991 C17.2625631,8.4267767 17.7374369,8.4267767 18.0303301,8.71966991 C18.2965966,8.98593648 18.3208027,9.40260016 18.1029482,9.69621165 L18.0303301,9.78033009 L12.5303301,15.2803301 C12.4238235,15.3868367 12.2932533,15.4546137 12.1561203,15.4836609 L12.0523136,15.4981845 L11.9476864,15.4981845 C11.8083659,15.4885021 11.6712329,15.44009 11.5537883,15.3529482 L11.4696699,15.2803301 L5.96966991,9.78033009 C5.6767767,9.48743687 5.6767767,9.01256313 5.96966991,8.71966991 C6.2063513,8.48298853 6.56186498,8.43756482 6.84415877,8.58339881 L6.94621165,8.64705176 Z" id="🎨-icon-color"></path>
            </g>
        </g>
    </g>
</svg>