<?xml version="1.0" encoding="UTF-8"?>
<svg width="24px" height="24px" viewBox="0 0 24 24" version="1.1" xmlns="http://www.w3.org/2000/svg" xmlns:xlink="http://www.w3.org/1999/xlink">
    <title>088283E5-95C6-471C-AB17-8911883689F9</title>
    <g id="09.-Icon" stroke="none" stroke-width="1" fill="none" fill-rule="evenodd">
        <g id="08.-Icon-and-Badge/01.-Icon/💡Guide/📌-SET_for-dev" transform="translate(-840.000000, -568.000000)" fill="#060B11">
            <g id="08.-Icon-and-Badge/01.-Icon/06.-Common/kp_core_ic_common_arrow_up_th15" transform="translate(840.000000, 568.000000)">
                <path d="M6.94621165,7.89705176 L7.03033009,7.96966991 L12,12.939 L16.9696699,7.96966991 C17.2625631,7.6767767 17.7374369,7.6767767 18.0303301,7.96966991 C18.2965966,8.23593648 18.3208027,8.65260016 18.1029482,8.94621165 L18.0303301,9.03033009 L12.5303301,14.5303301 C12.4238235,14.6368367 12.2932533,14.7046137 12.1561203,14.7336609 L12.0523136,14.7481845 L11.9476864,14.7481845 C11.8083659,14.7385021 11.6712329,14.69009 11.5537883,14.6029482 L11.4696699,14.5303301 L5.96966991,9.03033009 C5.6767767,8.73743687 5.6767767,8.26256313 5.96966991,7.96966991 C6.2063513,7.73298853 6.56186498,7.68756482 6.84415877,7.83339881 L6.94621165,7.89705176 Z" id="🎨-icon-color" transform="translate(12.000000, 11.249092) rotate(-180.000000) translate(-12.000000, -11.249092) "></path>
            </g>
        </g>
    </g>
</svg>