<?xml version="1.0" encoding="UTF-8"?>
<svg width="24px" height="24px" viewBox="0 0 24 24" version="1.1" xmlns="http://www.w3.org/2000/svg" xmlns:xlink="http://www.w3.org/1999/xlink">
    <title>016C5F29-28F3-4F7F-A9C4-F32E91EB5E49</title>
    <g id="09.-Icon" stroke="none" stroke-width="1" fill="none" fill-rule="evenodd">
        <g id="08.-Icon-and-Badge/01.-Icon/💡Guide/📌-SET_for-dev" transform="translate(-929.000000, -468.000000)" fill="#060B11">
            <g id="08.-Icon-and-Badge/01.-Icon/06.-Common/kp_core_ic_common_error" transform="translate(929.000000, 468.000000)">
                <path d="M12,2 C17.5228475,2 22,6.4771525 22,12 C22,17.5228475 17.5228475,22 12,22 C6.4771525,22 2,17.5228475 2,12 C2,6.4771525 6.4771525,2 12,2 Z M12,3.5 C7.30557963,3.5 3.5,7.30557963 3.5,12 C3.5,16.6944204 7.30557963,20.5 12,20.5 C16.6944204,20.5 20.5,16.6944204 20.5,12 C20.5,7.30557963 16.6944204,3.5 12,3.5 Z M12,15 C12.6075132,15 13.1,15.4924868 13.1,16.1 C13.1,16.7075132 12.6075132,17.2 12,17.2 C11.3924868,17.2 10.9,16.7075132 10.9,16.1 C10.9,15.4924868 11.3924868,15 12,15 Z M12,7 C12.5128358,7 12.9355072,7.40332557 12.9932723,7.92293315 L13,8.04477612 L13,12.9552239 C13,13.5322378 12.5522847,14 12,14 C11.4871642,14 11.0644928,13.5966744 11.0067277,13.0770668 L11,12.9552239 L11,8.04477612 C11,7.4677622 11.4477153,7 12,7 Z" id="🎨-icon-color"></path>
            </g>
        </g>
    </g>
</svg>