<?xml version="1.0" encoding="UTF-8"?>
<svg width="24px" height="24px" viewBox="0 0 24 24" version="1.1" xmlns="http://www.w3.org/2000/svg" xmlns:xlink="http://www.w3.org/1999/xlink">
    <title>82D6305A-DAA4-4104-B157-FFBC965BB08C</title>
    <g id="09.-Icon" stroke="none" stroke-width="1" fill="none" fill-rule="evenodd">
        <g id="08.-Icon-and-Badge/01.-Icon/💡Guide/📌-SET_for-dev" transform="translate(-474.000000, -568.000000)" fill="#060B11">
            <g id="08.-Icon-and-Badge/01.-Icon/06.-Common/kp_core_ic_common_arrow_left_th15" transform="translate(474.000000, 568.000000)">
                <path d="M6.69530393,8.64795949 L6.77942236,8.72057764 L11.7490923,13.6899077 L16.7187622,8.72057764 C17.0116554,8.42768442 17.4865291,8.42768442 17.7794224,8.72057764 C18.0456889,8.9868442 18.069895,9.40350789 17.8520405,9.69711938 L17.7794224,9.78123781 L12.2794224,15.2812378 C12.1729157,15.3877444 12.0423456,15.4555214 11.9052126,15.4845686 L11.8014058,15.4990923 L11.6967787,15.4990923 C11.5574582,15.4894099 11.4203252,15.4409978 11.3028806,15.353856 L11.2187622,15.2812378 L5.71876219,9.78123781 C5.42586897,9.48834459 5.42586897,9.01347086 5.71876219,8.72057764 C5.95544358,8.48389625 6.31095726,8.43847255 6.59325104,8.58430654 L6.69530393,8.64795949 Z" id="🎨-icon-color" transform="translate(11.749092, 12.000000) rotate(-270.000000) translate(-11.749092, -12.000000) "></path>
            </g>
        </g>
    </g>
</svg>